<svg width="470" height="259" viewBox="0 0 470 259" fill="none" xmlns="http://www.w3.org/2000/svg">
<path d="M160.546 242.702C160.546 243.623 160.38 244.418 160.048 245.089C159.715 245.759 159.26 246.276 158.68 246.64C158.1 247.003 157.439 247.185 156.694 247.185C155.95 247.185 155.288 247.003 154.708 246.64C154.129 246.276 153.673 245.759 153.34 245.089C153.008 244.418 152.842 243.623 152.842 242.702C152.842 241.782 153.008 240.986 153.34 240.316C153.673 239.645 154.129 239.128 154.708 238.765C155.288 238.401 155.95 238.219 156.694 238.219C157.439 238.219 158.1 238.401 158.68 238.765C159.26 239.128 159.715 239.645 160.048 240.316C160.38 240.986 160.546 241.782 160.546 242.702ZM159.524 242.702C159.524 241.946 159.397 241.309 159.144 240.789C158.894 240.269 158.555 239.875 158.126 239.608C157.7 239.341 157.223 239.208 156.694 239.208C156.166 239.208 155.687 239.341 155.258 239.608C154.832 239.875 154.492 240.269 154.24 240.789C153.99 241.309 153.865 241.946 153.865 242.702C153.865 243.458 153.99 244.096 154.24 244.616C154.492 245.135 154.832 245.529 155.258 245.796C155.687 246.063 156.166 246.196 156.694 246.196C157.223 246.196 157.7 246.063 158.126 245.796C158.555 245.529 158.894 245.135 159.144 244.616C159.397 244.096 159.524 243.458 159.524 242.702ZM162.187 249.52V240.52H163.159V241.56H163.278C163.352 241.446 163.454 241.302 163.585 241.125C163.718 240.946 163.909 240.787 164.156 240.648C164.406 240.506 164.744 240.435 165.17 240.435C165.721 240.435 166.207 240.573 166.627 240.848C167.048 241.124 167.376 241.515 167.612 242.02C167.848 242.526 167.965 243.123 167.965 243.81C167.965 244.503 167.848 245.104 167.612 245.613C167.376 246.118 167.049 246.51 166.632 246.789C166.214 247.064 165.733 247.202 165.187 247.202C164.767 247.202 164.43 247.133 164.177 246.993C163.924 246.851 163.73 246.691 163.593 246.512C163.457 246.33 163.352 246.179 163.278 246.06H163.193V249.52H162.187ZM163.176 243.793C163.176 244.287 163.248 244.723 163.393 245.101C163.538 245.476 163.75 245.77 164.028 245.983C164.306 246.194 164.647 246.299 165.051 246.299C165.471 246.299 165.822 246.188 166.103 245.966C166.387 245.742 166.6 245.441 166.742 245.063C166.887 244.682 166.96 244.259 166.96 243.793C166.96 243.333 166.889 242.918 166.747 242.549C166.608 242.177 166.396 241.883 166.112 241.667C165.831 241.448 165.477 241.339 165.051 241.339C164.642 241.339 164.298 241.442 164.019 241.65C163.741 241.854 163.531 242.141 163.389 242.51C163.247 242.877 163.176 243.304 163.176 243.793ZM169.5 249.52V240.52H170.471V241.56H170.59C170.664 241.446 170.767 241.302 170.897 241.125C171.031 240.946 171.221 240.787 171.468 240.648C171.718 240.506 172.056 240.435 172.483 240.435C173.034 240.435 173.519 240.573 173.94 240.848C174.36 241.124 174.689 241.515 174.924 242.02C175.16 242.526 175.278 243.123 175.278 243.81C175.278 244.503 175.16 245.104 174.924 245.613C174.689 246.118 174.362 246.51 173.944 246.789C173.527 247.064 173.045 247.202 172.5 247.202C172.079 247.202 171.742 247.133 171.49 246.993C171.237 246.851 171.042 246.691 170.906 246.512C170.769 246.33 170.664 246.179 170.59 246.06H170.505V249.52H169.5ZM170.488 243.793C170.488 244.287 170.561 244.723 170.706 245.101C170.85 245.476 171.062 245.77 171.34 245.983C171.619 246.194 171.96 246.299 172.363 246.299C172.784 246.299 173.135 246.188 173.416 245.966C173.7 245.742 173.913 245.441 174.055 245.063C174.2 244.682 174.272 244.259 174.272 243.793C174.272 243.333 174.201 242.918 174.059 242.549C173.92 242.177 173.708 241.883 173.424 241.667C173.143 241.448 172.789 241.339 172.363 241.339C171.954 241.339 171.61 241.442 171.332 241.65C171.054 241.854 170.843 242.141 170.701 242.51C170.559 242.877 170.488 243.304 170.488 243.793ZM181.448 241.986L180.545 242.242C180.488 242.091 180.404 241.945 180.294 241.803C180.186 241.658 180.038 241.539 179.85 241.445C179.663 241.351 179.423 241.304 179.13 241.304C178.73 241.304 178.396 241.397 178.129 241.581C177.865 241.763 177.733 241.995 177.733 242.276C177.733 242.526 177.823 242.723 178.005 242.868C178.187 243.013 178.471 243.134 178.858 243.231L179.829 243.469C180.414 243.611 180.85 243.829 181.137 244.121C181.424 244.411 181.568 244.785 181.568 245.242C181.568 245.617 181.46 245.952 181.244 246.248C181.031 246.543 180.733 246.776 180.349 246.946C179.965 247.117 179.519 247.202 179.011 247.202C178.343 247.202 177.791 247.057 177.353 246.768C176.916 246.478 176.639 246.054 176.522 245.498L177.477 245.259C177.568 245.611 177.74 245.875 177.992 246.052C178.248 246.228 178.582 246.316 178.994 246.316C179.463 246.316 179.835 246.216 180.11 246.018C180.389 245.816 180.528 245.574 180.528 245.293C180.528 245.066 180.448 244.875 180.289 244.722C180.13 244.566 179.886 244.449 179.556 244.373L178.465 244.117C177.866 243.975 177.426 243.755 177.144 243.456C176.866 243.155 176.727 242.779 176.727 242.327C176.727 241.958 176.831 241.631 177.038 241.347C177.248 241.063 177.534 240.84 177.894 240.678C178.258 240.516 178.67 240.435 179.13 240.435C179.778 240.435 180.287 240.577 180.656 240.861C181.028 241.145 181.292 241.52 181.448 241.986ZM183.815 247.134C183.604 247.134 183.424 247.059 183.273 246.908C183.123 246.758 183.048 246.577 183.048 246.367C183.048 246.157 183.123 245.976 183.273 245.826C183.424 245.675 183.604 245.6 183.815 245.6C184.025 245.6 184.205 245.675 184.356 245.826C184.506 245.976 184.582 246.157 184.582 246.367C184.582 246.506 184.546 246.634 184.475 246.75C184.407 246.867 184.315 246.961 184.198 247.032C184.084 247.1 183.957 247.134 183.815 247.134ZM187.119 247.134C186.909 247.134 186.729 247.059 186.578 246.908C186.427 246.758 186.352 246.577 186.352 246.367C186.352 246.157 186.427 245.976 186.578 245.826C186.729 245.675 186.909 245.6 187.119 245.6C187.329 245.6 187.51 245.675 187.66 245.826C187.811 245.976 187.886 246.157 187.886 246.367C187.886 246.506 187.851 246.634 187.78 246.75C187.712 246.867 187.619 246.961 187.503 247.032C187.389 247.1 187.261 247.134 187.119 247.134ZM193.202 247.066V238.339H196.151C196.836 238.339 197.396 238.462 197.83 238.709C198.268 238.954 198.592 239.285 198.802 239.702C199.012 240.12 199.117 240.586 199.117 241.1C199.117 241.614 199.012 242.081 198.802 242.502C198.594 242.922 198.273 243.258 197.839 243.508C197.404 243.755 196.847 243.878 196.168 243.878H194.055V242.941H196.134C196.603 242.941 196.979 242.86 197.263 242.698C197.548 242.536 197.753 242.317 197.881 242.042C198.012 241.763 198.077 241.449 198.077 241.1C198.077 240.75 198.012 240.438 197.881 240.162C197.753 239.887 197.546 239.671 197.259 239.515C196.972 239.356 196.592 239.276 196.117 239.276H194.259V247.066H193.202ZM202.609 247.219C202.195 247.219 201.818 247.141 201.48 246.985C201.142 246.826 200.874 246.597 200.675 246.299C200.476 245.998 200.376 245.634 200.376 245.208C200.376 244.833 200.45 244.529 200.598 244.296C200.746 244.06 200.943 243.875 201.19 243.742C201.437 243.608 201.71 243.509 202.008 243.444C202.31 243.375 202.612 243.321 202.916 243.282C203.314 243.231 203.636 243.192 203.883 243.167C204.133 243.138 204.315 243.091 204.429 243.026C204.545 242.961 204.604 242.847 204.604 242.685V242.651C204.604 242.231 204.489 241.904 204.258 241.671C204.031 241.438 203.686 241.321 203.223 241.321C202.743 241.321 202.366 241.427 202.094 241.637C201.821 241.847 201.629 242.071 201.518 242.31L200.564 241.969C200.734 241.571 200.962 241.262 201.246 241.04C201.533 240.816 201.845 240.66 202.183 240.571C202.524 240.481 202.859 240.435 203.189 240.435C203.399 240.435 203.641 240.461 203.913 240.512C204.189 240.56 204.454 240.661 204.71 240.814C204.969 240.968 205.183 241.199 205.354 241.509C205.524 241.819 205.609 242.233 205.609 242.753V247.066H204.604V246.179H204.552C204.484 246.321 204.371 246.473 204.212 246.635C204.052 246.797 203.841 246.935 203.577 247.049C203.312 247.162 202.99 247.219 202.609 247.219ZM202.763 246.316C203.16 246.316 203.496 246.238 203.768 246.081C204.044 245.925 204.251 245.723 204.391 245.476C204.533 245.229 204.604 244.969 204.604 244.696V243.776C204.561 243.827 204.467 243.874 204.322 243.917C204.18 243.956 204.016 243.992 203.828 244.023C203.643 244.052 203.463 244.077 203.287 244.1C203.114 244.12 202.973 244.137 202.865 244.151C202.604 244.185 202.359 244.241 202.132 244.317C201.908 244.391 201.726 244.503 201.587 244.654C201.45 244.802 201.382 245.003 201.382 245.259C201.382 245.608 201.511 245.873 201.77 246.052C202.031 246.228 202.362 246.316 202.763 246.316ZM210.087 249.657C209.601 249.657 209.184 249.594 208.834 249.469C208.485 249.347 208.193 249.185 207.961 248.983C207.73 248.785 207.547 248.571 207.411 248.344L208.212 247.782C208.303 247.901 208.418 248.037 208.557 248.191C208.696 248.347 208.887 248.482 209.128 248.596C209.372 248.712 209.692 248.77 210.087 248.77C210.615 248.77 211.051 248.643 211.395 248.387C211.739 248.131 211.911 247.731 211.911 247.185V245.856H211.826C211.752 245.975 211.647 246.123 211.51 246.299C211.377 246.472 211.184 246.627 210.931 246.763C210.681 246.897 210.343 246.964 209.916 246.964C209.388 246.964 208.914 246.839 208.493 246.589C208.076 246.339 207.745 245.975 207.5 245.498C207.259 245.02 207.138 244.441 207.138 243.759C207.138 243.089 207.256 242.505 207.492 242.008C207.728 241.508 208.056 241.121 208.476 240.848C208.897 240.573 209.382 240.435 209.934 240.435C210.36 240.435 210.698 240.506 210.948 240.648C211.201 240.787 211.394 240.946 211.527 241.125C211.664 241.302 211.769 241.446 211.843 241.56H211.945V240.52H212.916V247.253C212.916 247.816 212.789 248.273 212.533 248.625C212.28 248.981 211.939 249.241 211.51 249.405C211.084 249.573 210.61 249.657 210.087 249.657ZM210.053 246.06C210.456 246.06 210.797 245.968 211.076 245.783C211.354 245.598 211.566 245.333 211.711 244.986C211.855 244.64 211.928 244.225 211.928 243.742C211.928 243.27 211.857 242.854 211.715 242.493C211.573 242.133 211.363 241.85 211.084 241.645C210.806 241.441 210.462 241.339 210.053 241.339C209.627 241.339 209.272 241.446 208.988 241.662C208.706 241.878 208.495 242.168 208.353 242.532C208.213 242.895 208.144 243.299 208.144 243.742C208.144 244.196 208.215 244.598 208.357 244.948C208.502 245.294 208.715 245.567 208.996 245.766C209.28 245.962 209.632 246.06 210.053 246.06ZM217.502 247.202C216.871 247.202 216.327 247.063 215.87 246.785C215.415 246.503 215.064 246.111 214.817 245.608C214.573 245.103 214.451 244.515 214.451 243.844C214.451 243.174 214.573 242.583 214.817 242.071C215.064 241.557 215.408 241.157 215.848 240.87C216.291 240.58 216.809 240.435 217.399 240.435C217.74 240.435 218.077 240.492 218.409 240.606C218.742 240.719 219.044 240.904 219.317 241.16C219.59 241.412 219.807 241.748 219.969 242.165C220.131 242.583 220.212 243.097 220.212 243.708V244.134H215.166V243.265H219.189C219.189 242.895 219.115 242.566 218.968 242.276C218.823 241.986 218.615 241.758 218.345 241.59C218.078 241.422 217.763 241.339 217.399 241.339C216.999 241.339 216.652 241.438 216.36 241.637C216.07 241.833 215.847 242.089 215.691 242.404C215.534 242.719 215.456 243.057 215.456 243.418V243.998C215.456 244.492 215.541 244.911 215.712 245.255C215.885 245.596 216.125 245.856 216.432 246.035C216.739 246.211 217.095 246.299 217.502 246.299C217.766 246.299 218.005 246.262 218.218 246.188C218.434 246.111 218.62 245.998 218.776 245.847C218.932 245.694 219.053 245.503 219.138 245.276L220.11 245.549C220.007 245.878 219.836 246.168 219.594 246.418C219.353 246.665 219.054 246.858 218.699 246.998C218.344 247.134 217.945 247.202 217.502 247.202ZM225.117 247.066V240.52H226.122V247.066H225.117ZM225.628 239.429C225.432 239.429 225.263 239.363 225.121 239.229C224.982 239.096 224.912 238.935 224.912 238.748C224.912 238.56 224.982 238.4 225.121 238.266C225.263 238.133 225.432 238.066 225.628 238.066C225.824 238.066 225.992 238.133 226.131 238.266C226.273 238.4 226.344 238.56 226.344 238.748C226.344 238.935 226.273 239.096 226.131 239.229C225.992 239.363 225.824 239.429 225.628 239.429ZM232.601 241.986L231.697 242.242C231.641 242.091 231.557 241.945 231.446 241.803C231.338 241.658 231.19 241.539 231.003 241.445C230.815 241.351 230.575 241.304 230.283 241.304C229.882 241.304 229.548 241.397 229.281 241.581C229.017 241.763 228.885 241.995 228.885 242.276C228.885 242.526 228.976 242.723 229.158 242.868C229.339 243.013 229.624 243.134 230.01 243.231L230.981 243.469C231.567 243.611 232.003 243.829 232.29 244.121C232.577 244.411 232.72 244.785 232.72 245.242C232.72 245.617 232.612 245.952 232.396 246.248C232.183 246.543 231.885 246.776 231.501 246.946C231.118 247.117 230.672 247.202 230.163 247.202C229.496 247.202 228.943 247.057 228.506 246.768C228.068 246.478 227.791 246.054 227.675 245.498L228.629 245.259C228.72 245.611 228.892 245.875 229.145 246.052C229.401 246.228 229.734 246.316 230.146 246.316C230.615 246.316 230.987 246.216 231.263 246.018C231.541 245.816 231.68 245.574 231.68 245.293C231.68 245.066 231.601 244.875 231.442 244.722C231.283 244.566 231.038 244.449 230.709 244.373L229.618 244.117C229.018 243.975 228.578 243.755 228.297 243.456C228.018 243.155 227.879 242.779 227.879 242.327C227.879 241.958 227.983 241.631 228.19 241.347C228.401 241.063 228.686 240.84 229.047 240.678C229.41 240.516 229.822 240.435 230.283 240.435C230.93 240.435 231.439 240.577 231.808 240.861C232.18 241.145 232.445 241.52 232.601 241.986ZM241.734 244.39V240.52H242.74V247.066H241.734V245.958H241.666C241.512 246.29 241.274 246.573 240.95 246.806C240.626 247.036 240.217 247.151 239.723 247.151C239.314 247.151 238.95 247.062 238.632 246.883C238.314 246.701 238.064 246.428 237.882 246.064C237.7 245.698 237.609 245.236 237.609 244.679V240.52H238.615V244.611C238.615 245.089 238.748 245.469 239.015 245.753C239.285 246.037 239.629 246.179 240.046 246.179C240.296 246.179 240.551 246.116 240.809 245.988C241.071 245.86 241.289 245.664 241.465 245.4C241.644 245.135 241.734 244.799 241.734 244.39ZM245.587 243.128V247.066H244.582V240.52H245.553V241.543H245.638C245.792 241.211 246.025 240.944 246.337 240.742C246.65 240.537 247.053 240.435 247.548 240.435C247.991 240.435 248.378 240.526 248.711 240.708C249.043 240.887 249.302 241.16 249.486 241.526C249.671 241.89 249.763 242.35 249.763 242.907V247.066H248.758V242.975C248.758 242.461 248.624 242.06 248.357 241.773C248.09 241.483 247.724 241.339 247.258 241.339C246.937 241.339 246.65 241.408 246.397 241.547C246.147 241.687 245.95 241.89 245.805 242.157C245.66 242.424 245.587 242.748 245.587 243.128ZM254.073 247.202C253.527 247.202 253.046 247.064 252.628 246.789C252.211 246.51 251.884 246.118 251.648 245.613C251.412 245.104 251.294 244.503 251.294 243.81C251.294 243.123 251.412 242.526 251.648 242.02C251.884 241.515 252.212 241.124 252.632 240.848C253.053 240.573 253.539 240.435 254.09 240.435C254.516 240.435 254.853 240.506 255.1 240.648C255.35 240.787 255.54 240.946 255.671 241.125C255.804 241.302 255.908 241.446 255.982 241.56H256.067V238.339H257.073V247.066H256.101V246.06H255.982C255.908 246.179 255.803 246.33 255.666 246.512C255.53 246.691 255.336 246.851 255.083 246.993C254.83 247.133 254.493 247.202 254.073 247.202ZM254.209 246.299C254.613 246.299 254.953 246.194 255.232 245.983C255.51 245.77 255.722 245.476 255.867 245.101C256.012 244.723 256.084 244.287 256.084 243.793C256.084 243.304 256.013 242.877 255.871 242.51C255.729 242.141 255.519 241.854 255.24 241.65C254.962 241.442 254.618 241.339 254.209 241.339C253.783 241.339 253.428 241.448 253.144 241.667C252.863 241.883 252.651 242.177 252.509 242.549C252.37 242.918 252.3 243.333 252.3 243.793C252.3 244.259 252.371 244.682 252.513 245.063C252.658 245.441 252.871 245.742 253.152 245.966C253.436 246.188 253.789 246.299 254.209 246.299ZM261.799 247.202C261.168 247.202 260.624 247.063 260.166 246.785C259.712 246.503 259.361 246.111 259.114 245.608C258.87 245.103 258.747 244.515 258.747 243.844C258.747 243.174 258.87 242.583 259.114 242.071C259.361 241.557 259.705 241.157 260.145 240.87C260.588 240.58 261.105 240.435 261.696 240.435C262.037 240.435 262.374 240.492 262.706 240.606C263.039 240.719 263.341 240.904 263.614 241.16C263.887 241.412 264.104 241.748 264.266 242.165C264.428 242.583 264.509 243.097 264.509 243.708V244.134H259.463V243.265H263.486C263.486 242.895 263.412 242.566 263.265 242.276C263.12 241.986 262.912 241.758 262.642 241.59C262.375 241.422 262.06 241.339 261.696 241.339C261.296 241.339 260.949 241.438 260.657 241.637C260.367 241.833 260.144 242.089 259.988 242.404C259.831 242.719 259.753 243.057 259.753 243.418V243.998C259.753 244.492 259.838 244.911 260.009 245.255C260.182 245.596 260.422 245.856 260.729 246.035C261.036 246.211 261.392 246.299 261.799 246.299C262.063 246.299 262.301 246.262 262.515 246.188C262.73 246.111 262.916 245.998 263.073 245.847C263.229 245.694 263.35 245.503 263.435 245.276L264.407 245.549C264.304 245.878 264.132 246.168 263.891 246.418C263.649 246.665 263.351 246.858 262.996 246.998C262.641 247.134 262.242 247.202 261.799 247.202ZM266.039 247.066V240.52H267.01V241.509H267.078C267.198 241.185 267.414 240.922 267.726 240.721C268.039 240.519 268.391 240.418 268.783 240.418C268.857 240.418 268.949 240.419 269.06 240.422C269.171 240.425 269.255 240.429 269.311 240.435V241.458C269.277 241.449 269.199 241.437 269.077 241.419C268.958 241.4 268.831 241.39 268.698 241.39C268.38 241.39 268.095 241.456 267.845 241.59C267.598 241.721 267.402 241.902 267.257 242.135C267.115 242.366 267.044 242.628 267.044 242.924V247.066H266.039ZM276.538 247.202C275.924 247.202 275.396 247.057 274.952 246.768C274.509 246.478 274.168 246.079 273.93 245.57C273.691 245.062 273.572 244.481 273.572 243.827C273.572 243.162 273.694 242.576 273.938 242.067C274.185 241.556 274.529 241.157 274.969 240.87C275.413 240.58 275.93 240.435 276.521 240.435C276.981 240.435 277.396 240.52 277.765 240.691C278.134 240.861 278.437 241.1 278.673 241.407C278.908 241.714 279.055 242.071 279.111 242.481H278.106C278.029 242.182 277.859 241.918 277.594 241.688C277.333 241.455 276.981 241.339 276.538 241.339C276.146 241.339 275.802 241.441 275.506 241.645C275.214 241.847 274.985 242.133 274.82 242.502C274.658 242.868 274.577 243.299 274.577 243.793C274.577 244.299 274.657 244.739 274.816 245.114C274.978 245.489 275.205 245.78 275.498 245.988C275.793 246.195 276.14 246.299 276.538 246.299C276.799 246.299 277.036 246.253 277.249 246.162C277.462 246.071 277.643 245.941 277.79 245.77C277.938 245.6 278.043 245.395 278.106 245.157H279.111C279.055 245.543 278.914 245.891 278.69 246.201C278.468 246.508 278.174 246.752 277.807 246.934C277.444 247.113 277.021 247.202 276.538 247.202ZM283.241 247.202C282.65 247.202 282.131 247.062 281.685 246.78C281.242 246.499 280.896 246.106 280.646 245.6C280.398 245.094 280.275 244.503 280.275 243.827C280.275 243.145 280.398 242.55 280.646 242.042C280.896 241.533 281.242 241.138 281.685 240.857C282.131 240.576 282.65 240.435 283.241 240.435C283.832 240.435 284.349 240.576 284.792 240.857C285.238 241.138 285.584 241.533 285.832 242.042C286.082 242.55 286.207 243.145 286.207 243.827C286.207 244.503 286.082 245.094 285.832 245.6C285.584 246.106 285.238 246.499 284.792 246.78C284.349 247.062 283.832 247.202 283.241 247.202ZM283.241 246.299C283.69 246.299 284.059 246.184 284.349 245.954C284.638 245.723 284.853 245.421 284.992 245.046C285.131 244.671 285.201 244.265 285.201 243.827C285.201 243.39 285.131 242.982 284.992 242.604C284.853 242.226 284.638 241.921 284.349 241.688C284.059 241.455 283.69 241.339 283.241 241.339C282.792 241.339 282.423 241.455 282.133 241.688C281.843 241.921 281.628 242.226 281.489 242.604C281.35 242.982 281.28 243.39 281.28 243.827C281.28 244.265 281.35 244.671 281.489 245.046C281.628 245.421 281.843 245.723 282.133 245.954C282.423 246.184 282.792 246.299 283.241 246.299ZM288.747 243.128V247.066H287.742V240.52H288.713V241.543H288.799C288.952 241.211 289.185 240.944 289.497 240.742C289.81 240.537 290.213 240.435 290.708 240.435C291.151 240.435 291.539 240.526 291.871 240.708C292.203 240.887 292.462 241.16 292.647 241.526C292.831 241.89 292.924 242.35 292.924 242.907V247.066H291.918V242.975C291.918 242.461 291.784 242.06 291.517 241.773C291.25 241.483 290.884 241.339 290.418 241.339C290.097 241.339 289.81 241.408 289.557 241.547C289.307 241.687 289.11 241.89 288.965 242.157C288.82 242.424 288.747 242.748 288.747 243.128ZM299.398 241.986L298.494 242.242C298.437 242.091 298.354 241.945 298.243 241.803C298.135 241.658 297.987 241.539 297.8 241.445C297.612 241.351 297.372 241.304 297.079 241.304C296.679 241.304 296.345 241.397 296.078 241.581C295.814 241.763 295.682 241.995 295.682 242.276C295.682 242.526 295.773 242.723 295.954 242.868C296.136 243.013 296.42 243.134 296.807 243.231L297.778 243.469C298.364 243.611 298.8 243.829 299.087 244.121C299.374 244.411 299.517 244.785 299.517 245.242C299.517 245.617 299.409 245.952 299.193 246.248C298.98 246.543 298.682 246.776 298.298 246.946C297.915 247.117 297.469 247.202 296.96 247.202C296.293 247.202 295.74 247.057 295.302 246.768C294.865 246.478 294.588 246.054 294.472 245.498L295.426 245.259C295.517 245.611 295.689 245.875 295.942 246.052C296.197 246.228 296.531 246.316 296.943 246.316C297.412 246.316 297.784 246.216 298.06 246.018C298.338 245.816 298.477 245.574 298.477 245.293C298.477 245.066 298.398 244.875 298.239 244.722C298.079 244.566 297.835 244.449 297.506 244.373L296.415 244.117C295.815 243.975 295.375 243.755 295.094 243.456C294.815 243.155 294.676 242.779 294.676 242.327C294.676 241.958 294.78 241.631 294.987 241.347C295.197 241.063 295.483 240.84 295.844 240.678C296.207 240.516 296.619 240.435 297.079 240.435C297.727 240.435 298.236 240.577 298.605 240.861C298.977 241.145 299.241 241.52 299.398 241.986ZM303.877 240.52V241.373H300.485V240.52H303.877ZM301.474 238.952H302.48V245.191C302.48 245.475 302.521 245.688 302.603 245.83C302.689 245.969 302.796 246.063 302.927 246.111C303.061 246.157 303.201 246.179 303.349 246.179C303.46 246.179 303.551 246.174 303.622 246.162C303.693 246.148 303.75 246.137 303.792 246.128L303.997 247.032C303.929 247.057 303.833 247.083 303.711 247.108C303.589 247.137 303.434 247.151 303.247 247.151C302.963 247.151 302.684 247.09 302.412 246.968C302.142 246.846 301.917 246.66 301.738 246.41C301.562 246.16 301.474 245.844 301.474 245.464V238.952ZM305.39 247.066V240.52H306.362V241.509H306.43C306.549 241.185 306.765 240.922 307.078 240.721C307.39 240.519 307.742 240.418 308.135 240.418C308.208 240.418 308.301 240.419 308.412 240.422C308.522 240.425 308.606 240.429 308.663 240.435V241.458C308.629 241.449 308.551 241.437 308.429 241.419C308.309 241.4 308.183 241.39 308.049 241.39C307.731 241.39 307.447 241.456 307.197 241.59C306.95 241.721 306.754 241.902 306.609 242.135C306.467 242.366 306.396 242.628 306.396 242.924V247.066H305.39ZM313.98 244.39V240.52H314.986V247.066H313.98V245.958H313.912C313.758 246.29 313.52 246.573 313.196 246.806C312.872 247.036 312.463 247.151 311.969 247.151C311.56 247.151 311.196 247.062 310.878 246.883C310.56 246.701 310.31 246.428 310.128 246.064C309.946 245.698 309.855 245.236 309.855 244.679V240.52H310.861V244.611C310.861 245.089 310.994 245.469 311.261 245.753C311.531 246.037 311.875 246.179 312.293 246.179C312.543 246.179 312.797 246.116 313.055 245.988C313.317 245.86 313.535 245.664 313.712 245.4C313.891 245.135 313.98 244.799 313.98 244.39ZM319.487 247.202C318.873 247.202 318.345 247.057 317.902 246.768C317.458 246.478 317.117 246.079 316.879 245.57C316.64 245.062 316.521 244.481 316.521 243.827C316.521 243.162 316.643 242.576 316.887 242.067C317.135 241.556 317.478 241.157 317.919 240.87C318.362 240.58 318.879 240.435 319.47 240.435C319.93 240.435 320.345 240.52 320.714 240.691C321.083 240.861 321.386 241.1 321.622 241.407C321.858 241.714 322.004 242.071 322.061 242.481H321.055C320.978 242.182 320.808 241.918 320.544 241.688C320.282 241.455 319.93 241.339 319.487 241.339C319.095 241.339 318.751 241.441 318.456 241.645C318.163 241.847 317.934 242.133 317.769 242.502C317.608 242.868 317.527 243.299 317.527 243.793C317.527 244.299 317.606 244.739 317.765 245.114C317.927 245.489 318.154 245.78 318.447 245.988C318.742 246.195 319.089 246.299 319.487 246.299C319.748 246.299 319.985 246.253 320.198 246.162C320.412 246.071 320.592 245.941 320.74 245.77C320.887 245.6 320.992 245.395 321.055 245.157H322.061C322.004 245.543 321.863 245.891 321.639 246.201C321.417 246.508 321.123 246.752 320.757 246.934C320.393 247.113 319.97 247.202 319.487 247.202ZM326.377 240.52V241.373H322.985V240.52H326.377ZM323.974 238.952H324.98V245.191C324.98 245.475 325.021 245.688 325.103 245.83C325.189 245.969 325.296 246.063 325.427 246.111C325.561 246.157 325.701 246.179 325.849 246.179C325.96 246.179 326.051 246.174 326.122 246.162C326.193 246.148 326.25 246.137 326.292 246.128L326.497 247.032C326.429 247.057 326.333 247.083 326.211 247.108C326.089 247.137 325.934 247.151 325.747 247.151C325.463 247.151 325.184 247.09 324.912 246.968C324.642 246.846 324.417 246.66 324.238 246.41C324.062 246.16 323.974 245.844 323.974 245.464V238.952ZM327.89 247.066V240.52H328.896V247.066H327.89ZM328.402 239.429C328.206 239.429 328.037 239.363 327.894 239.229C327.755 239.096 327.686 238.935 327.686 238.748C327.686 238.56 327.755 238.4 327.894 238.266C328.037 238.133 328.206 238.066 328.402 238.066C328.598 238.066 328.765 238.133 328.904 238.266C329.046 238.4 329.117 238.56 329.117 238.748C329.117 238.935 329.046 239.096 328.904 239.229C328.765 239.363 328.598 239.429 328.402 239.429ZM333.397 247.202C332.806 247.202 332.288 247.062 331.842 246.78C331.398 246.499 331.052 246.106 330.802 245.6C330.555 245.094 330.431 244.503 330.431 243.827C330.431 243.145 330.555 242.55 330.802 242.042C331.052 241.533 331.398 241.138 331.842 240.857C332.288 240.576 332.806 240.435 333.397 240.435C333.988 240.435 334.505 240.576 334.948 240.857C335.394 241.138 335.741 241.533 335.988 242.042C336.238 242.55 336.363 243.145 336.363 243.827C336.363 244.503 336.238 245.094 335.988 245.6C335.741 246.106 335.394 246.499 334.948 246.78C334.505 247.062 333.988 247.202 333.397 247.202ZM333.397 246.299C333.846 246.299 334.215 246.184 334.505 245.954C334.795 245.723 335.009 245.421 335.148 245.046C335.288 244.671 335.357 244.265 335.357 243.827C335.357 243.39 335.288 242.982 335.148 242.604C335.009 242.226 334.795 241.921 334.505 241.688C334.215 241.455 333.846 241.339 333.397 241.339C332.948 241.339 332.579 241.455 332.289 241.688C331.999 241.921 331.785 242.226 331.646 242.604C331.506 242.982 331.437 243.39 331.437 243.827C331.437 244.265 331.506 244.671 331.646 245.046C331.785 245.421 331.999 245.723 332.289 245.954C332.579 246.184 332.948 246.299 333.397 246.299ZM338.904 243.128V247.066H337.898V240.52H338.87V241.543H338.955C339.108 241.211 339.341 240.944 339.654 240.742C339.966 240.537 340.37 240.435 340.864 240.435C341.307 240.435 341.695 240.526 342.027 240.708C342.36 240.887 342.618 241.16 342.803 241.526C342.988 241.89 343.08 242.35 343.08 242.907V247.066H342.074V242.975C342.074 242.461 341.941 242.06 341.674 241.773C341.407 241.483 341.04 241.339 340.574 241.339C340.253 241.339 339.966 241.408 339.713 241.547C339.463 241.687 339.266 241.89 339.121 242.157C338.976 242.424 338.904 242.748 338.904 243.128Z" fill="#222221"/>
<path d="M309.02 44.9V61.1H206.36V31.05H132.79V204.46H206.36L387.85 205.54V44.9H309.02Z" fill="url(#paint0_linear_1_181)"/>
<path d="M369.19 55.82H320.61C319.93 55.82 319.38 55.27 319.38 54.59C319.38 53.91 319.93 53.36 320.61 53.36H369.19C369.87 53.36 370.42 53.91 370.42 54.59C370.42 55.27 369.87 55.82 369.19 55.82Z" fill="white"/>
<path d="M369.19 65.44H320.61C319.93 65.44 319.38 64.89 319.38 64.21C319.38 63.53 319.93 62.98 320.61 62.98H369.19C369.87 62.98 370.42 63.53 370.42 64.21C370.42 64.88 369.87 65.44 369.19 65.44Z" fill="white"/>
<path d="M369.19 75.05H320.61C319.93 75.05 319.38 74.5 319.38 73.82C319.38 73.14 319.93 72.59 320.61 72.59H369.19C369.87 72.59 370.42 73.14 370.42 73.82C370.42 74.5 369.87 75.05 369.19 75.05Z" fill="white"/>
<path d="M369.19 84.67H320.61C319.93 84.67 319.38 84.12 319.38 83.44C319.38 82.76 319.93 82.21 320.61 82.21H369.19C369.87 82.21 370.42 82.76 370.42 83.44C370.42 84.12 369.87 84.67 369.19 84.67Z" fill="white"/>
<path d="M369.19 94.28H320.61C319.93 94.28 319.38 93.73 319.38 93.05C319.38 92.37 319.93 91.82 320.61 91.82H369.19C369.87 91.82 370.42 92.37 370.42 93.05C370.42 93.73 369.87 94.28 369.19 94.28Z" fill="white"/>
<path d="M369.19 103.9H320.61C319.93 103.9 319.38 103.35 319.38 102.67C319.38 101.99 319.93 101.44 320.61 101.44H369.19C369.87 101.44 370.42 101.99 370.42 102.67C370.42 103.35 369.87 103.9 369.19 103.9Z" fill="white"/>
<path d="M147.52 40.09H141.21V46.4H147.52V40.09Z" fill="white"/>
<path d="M160.27 40.09H153.96V46.4H160.27V40.09Z" fill="white"/>
<path d="M173.02 40.09H166.71V46.4H173.02V40.09Z" fill="white"/>
<path d="M185.77 40.09H179.46V46.4H185.77V40.09Z" fill="white"/>
<path d="M147.52 55.82H141.21V62.13H147.52V55.82Z" fill="white"/>
<path d="M160.27 55.82H153.96V62.13H160.27V55.82Z" fill="white"/>
<path d="M173.02 55.82H166.71V62.13H173.02V55.82Z" fill="white"/>
<path d="M185.77 55.82H179.46V62.13H185.77V55.82Z" fill="white"/>
<path d="M147.52 71.55H141.21V77.86H147.52V71.55Z" fill="white"/>
<path d="M160.27 71.55H153.96V77.86H160.27V71.55Z" fill="white"/>
<path d="M173.02 71.55H166.71V77.86H173.02V71.55Z" fill="white"/>
<path d="M185.77 71.55H179.46V77.86H185.77V71.55Z" fill="white"/>
<path d="M267.9 168.68C262.67 179.86 255.62 179.86 253.3 179.86C247.68 179.86 243.03 176.31 239.47 169.32C235.19 160.92 232.92 148.31 232.92 132.86C232.92 132.66 232.92 132.46 232.93 132.26H203.24C203.24 132.39 203.23 132.53 203.23 132.66V132.69V132.72C203.43 154.66 207.98 172.93 216.37 185.56C225.06 198.63 237.48 205.54 252.29 205.54C268.59 205.54 281.89 198.47 290.75 185.1C299.08 172.53 303.37 154.75 303.55 132.26H273.88C273.83 147.83 271.77 160.42 267.9 168.68Z" fill="#E53935"/>
<path d="M244.43 211.1H216.21L218.12 200.22L220.01 189.42L221.92 178.54L223.82 167.74L225.24 159.64C225.51 158.08 226.87 156.94 228.46 156.94H232.2C233.79 156.94 235.14 158.08 235.42 159.64L236.84 167.74L238.74 178.54L240.65 189.42L242.54 200.22L244.43 211.1Z" fill="#FFA726"/>
<path d="M253.19 217.46H207.45L216.21 211.11H244.43L253.19 217.46Z" fill="#FB8C00"/>
<path d="M250.65 220.96H209.99C208.59 220.96 207.45 219.82 207.45 218.42V217.46H253.19V218.42C253.19 219.82 252.05 220.96 250.65 220.96Z" fill="#FFA726"/>
<path d="M238.72 178.54H221.92L223.81 167.74H236.83L238.72 178.54Z" fill="#ECEFF1"/>
<path d="M242.52 200.23H218.12L220.01 189.43H240.63L242.52 200.23Z" fill="#ECEFF1"/>
<path d="M253.19 219.75V217.46L244.43 211.11L242.52 200.23L240.63 189.43L238.72 178.55L236.82 167.75L235.4 159.65C235.12 158.09 233.77 156.95 232.18 156.95L237.73 211.11L244.42 217.46V220.96H251.97C252.65 220.96 253.19 220.42 253.19 219.75Z" fill="url(#paint1_linear_1_181)"/>
<path d="M207.45 219.75V217.46L216.21 211.11L218.12 200.23L220.01 189.43L221.92 178.55L223.82 167.75L225.24 159.65C225.52 158.09 226.87 156.95 228.46 156.95L222.91 211.11L216.22 217.46V220.96H208.67C207.99 220.96 207.45 220.42 207.45 219.75Z" fill="url(#paint2_linear_1_181)"/>
<path d="M304.88 79.11C296.32 65.94 283.58 58.98 268.02 58.98C252.67 58.98 239.71 65.91 230.55 79.02C221.58 91.86 216.82 110.27 216.76 132.26H246.45C246.51 116.58 248.87 103.78 253.3 95.23C256.93 88.21 261.55 84.66 267.03 84.66C274.64 84.66 287.41 90.77 287.41 131.66C287.41 131.86 287.41 132.06 287.4 132.26H317.07C317.07 131.79 317.09 131.33 317.09 130.86C317.08 108.99 312.98 91.58 304.88 79.11Z" fill="#E53935"/>
<path d="M418.06 139.83H405.88V65.01V58.97H399.84H380.83H377.68L375.88 61.55L317.84 144.61L316.75 146.17V148.07V159.68V165.72H322.79H377.19V195.11V201.15H383.23H399.84H405.88V195.11V165.72H418.06H424.1V159.68V145.87V139.83H418.06ZM352.1 139.83L377.2 104.94V139.83H352.1Z" fill="#E53935"/>
<path d="M85.34 201.43C84.39 201.43 83.58 200.72 83.47 199.76L64.63 32.68C64.51 31.65 65.26 30.71 66.29 30.6C67.33 30.49 68.26 31.23 68.37 32.26L87.21 199.34C87.33 200.37 86.58 201.31 85.55 201.42C85.48 201.43 85.41 201.43 85.34 201.43Z" fill="#8C9EA5"/>
<path d="M136.35 201.43C135.4 201.43 134.59 200.72 134.48 199.76L115.64 32.68C115.52 31.65 116.27 30.71 117.3 30.6C118.34 30.49 119.27 31.23 119.38 32.26L138.22 199.34C138.34 200.37 137.59 201.31 136.56 201.42C136.49 201.43 136.42 201.43 136.35 201.43Z" fill="#8C9EA5"/>
<path d="M119.47 51.78H68.46C67.42 51.78 66.58 50.94 66.58 49.9C66.58 48.86 67.42 48.02 68.46 48.02H119.47C120.51 48.02 121.35 48.86 121.35 49.9C121.36 50.93 120.51 51.78 119.47 51.78Z" fill="#8C9EA5"/>
<path d="M120.54 68.35H70.59C69.55 68.35 68.71 67.51 68.71 66.47C68.71 65.43 69.55 64.59 70.59 64.59H120.54C121.58 64.59 122.42 65.43 122.42 66.47C122.42 67.51 121.58 68.35 120.54 68.35Z" fill="#8C9EA5"/>
<path d="M121.6 84.93H72.72C71.68 84.93 70.84 84.09 70.84 83.05C70.84 82.01 71.68 81.17 72.72 81.17H121.6C122.64 81.17 123.48 82.01 123.48 83.05C123.49 84.09 122.64 84.93 121.6 84.93Z" fill="#8C9EA5"/>
<path d="M125.08 101.51H74.93C73.89 101.51 73.05 100.67 73.05 99.63C73.05 98.59 73.89 97.75 74.93 97.75H125.08C126.12 97.75 126.96 98.59 126.96 99.63C126.97 100.67 126.12 101.51 125.08 101.51Z" fill="#8C9EA5"/>
<path d="M126.93 118.09H76.48C75.44 118.09 74.6 117.25 74.6 116.21C74.6 115.17 75.44 114.33 76.48 114.33H126.93C127.97 114.33 128.81 115.17 128.81 116.21C128.81 117.25 127.97 118.09 126.93 118.09Z" fill="#8C9EA5"/>
<path d="M128.82 134.67H78.33C77.29 134.67 76.45 133.83 76.45 132.79C76.45 131.75 77.29 130.91 78.33 130.91H128.82C129.86 130.91 130.7 131.75 130.7 132.79C130.71 133.83 129.86 134.67 128.82 134.67Z" fill="#8C9EA5"/>
<path d="M117.88 35.92H63.05C61.14 35.92 59.59 34.37 59.59 32.46C59.59 30.55 61.14 29 63.05 29H117.88C119.79 29 121.34 30.55 121.34 32.46C121.34 34.37 119.79 35.92 117.88 35.92Z" fill="#B0BEC5"/>
<path d="M96.39 201.43C96.32 201.43 96.25 201.43 96.18 201.42C95.15 201.3 94.4 200.37 94.52 199.34L113.36 32.26C113.48 31.23 114.41 30.49 115.44 30.6C116.47 30.72 117.22 31.65 117.1 32.68L98.26 199.76C98.15 200.72 97.33 201.43 96.39 201.43Z" fill="#B0BEC5"/>
<path d="M45.37 201.43C45.3 201.43 45.23 201.43 45.16 201.42C44.13 201.3 43.38 200.37 43.5 199.34L62.34 32.26C62.46 31.23 63.39 30.49 64.42 30.6C65.45 30.72 66.2 31.65 66.08 32.68L47.24 199.76C47.14 200.72 46.32 201.43 45.37 201.43Z" fill="#B0BEC5"/>
<path d="M113.26 51.78H62.25C61.21 51.78 60.37 50.94 60.37 49.9C60.37 48.86 61.21 48.02 62.25 48.02H113.26C114.3 48.02 115.14 48.86 115.14 49.9C115.15 50.93 114.3 51.78 113.26 51.78Z" fill="#B0BEC5"/>
<path d="M111.13 68.35H61.18C60.14 68.35 59.3 67.51 59.3 66.47C59.3 65.43 60.14 64.59 61.18 64.59H111.13C112.17 64.59 113.01 65.43 113.01 66.47C113.01 67.51 112.17 68.35 111.13 68.35Z" fill="#B0BEC5"/>
<path d="M109 84.93H60.12C59.08 84.93 58.24 84.09 58.24 83.05C58.24 82.01 59.08 81.17 60.12 81.17H109C110.04 81.17 110.88 82.01 110.88 83.05C110.88 84.09 110.04 84.93 109 84.93Z" fill="#B0BEC5"/>
<path d="M106.79 101.51H56.64C55.6 101.51 54.76 100.67 54.76 99.63C54.76 98.59 55.6 97.75 56.64 97.75H106.79C107.83 97.75 108.67 98.59 108.67 99.63C108.68 100.67 107.83 101.51 106.79 101.51Z" fill="#B0BEC5"/>
<path d="M105.24 118.09H54.79C53.75 118.09 52.91 117.25 52.91 116.21C52.91 115.17 53.75 114.33 54.79 114.33H105.24C106.28 114.33 107.12 115.17 107.12 116.21C107.13 117.25 106.28 118.09 105.24 118.09Z" fill="#B0BEC5"/>
<path d="M103.39 134.67H52.9C51.86 134.67 51.02 133.83 51.02 132.79C51.02 131.75 51.86 130.91 52.9 130.91H103.39C104.43 130.91 105.27 131.75 105.27 132.79C105.28 133.83 104.43 134.67 103.39 134.67Z" fill="#B0BEC5"/>
<path d="M150.64 153.65L213.08 112.43L218.12 109.1L214.79 104.06L204.32 88.19L202.59 85.56L199.44 85.48L98.15 82.79L96.25 82.74L94.66 83.79L84.97 90.18L79.93 93.51L83.26 98.55L113.23 143.96L88.7 160.15L83.66 163.48L86.99 168.52L96.14 182.38L99.47 187.42L104.51 184.09L129.04 167.9L135.75 178.06L139.08 183.1L144.12 179.77L155.65 172.16L160.69 168.83L157.36 163.79L150.64 153.65ZM121.01 108.76L163.95 110.49L134.83 129.71L121.01 108.76Z" fill="#E53935"/>
<path d="M62.75 179.67C54.14 179.67 47.17 186.65 47.17 195.25C47.17 203.86 54.15 210.83 62.75 210.83H194.55V179.66H62.75V179.67Z" fill="#B0BEC5"/>
<path d="M62.75 179.67C54.14 179.67 47.17 186.65 47.17 195.25C47.17 203.86 54.15 210.83 62.75 210.83H194.55V179.66H62.75V179.67Z" fill="url(#paint3_linear_1_181)"/>
<path d="M200.475 209.67C208.438 206.408 212.249 197.309 208.987 189.346C205.725 181.383 196.625 177.573 188.663 180.835C180.7 184.097 176.889 193.196 180.151 201.159C183.413 209.122 192.513 212.932 200.475 209.67Z" fill="#CFD8DC"/>
<path d="M194.55 206.48C200.752 206.48 205.78 201.452 205.78 195.25C205.78 189.048 200.752 184.02 194.55 184.02C188.348 184.02 183.32 189.048 183.32 195.25C183.32 201.452 188.348 206.48 194.55 206.48Z" fill="#B0BEC5"/>
<path d="M194.55 206.48C200.752 206.48 205.78 201.452 205.78 195.25C205.78 189.048 200.752 184.02 194.55 184.02C188.348 184.02 183.32 189.048 183.32 195.25C183.32 201.452 188.348 206.48 194.55 206.48Z" fill="url(#paint4_linear_1_181)"/>
<path d="M45.96 151.92C37.35 151.92 30.38 158.9 30.38 167.5C30.38 176.11 37.36 183.08 45.96 183.08H177.76V151.91H45.96V151.92Z" fill="#B0BEC5"/>
<path d="M45.96 151.92C37.35 151.92 30.38 158.9 30.38 167.5C30.38 176.11 37.36 183.08 45.96 183.08H177.76V151.91H45.96V151.92Z" fill="url(#paint5_linear_1_181)"/>
<path d="M188.774 178.525C194.858 172.441 194.858 162.576 188.774 156.492C182.689 150.408 172.825 150.407 166.74 156.492C160.656 162.576 160.656 172.441 166.74 178.525C172.825 184.609 182.689 184.609 188.774 178.525Z" fill="#CFD8DC"/>
<path d="M177.76 178.74C183.962 178.74 188.99 173.712 188.99 167.51C188.99 161.308 183.962 156.28 177.76 156.28C171.558 156.28 166.53 161.308 166.53 167.51C166.53 173.712 171.558 178.74 177.76 178.74Z" fill="#B0BEC5"/>
<path d="M177.76 178.74C183.962 178.74 188.99 173.712 188.99 167.51C188.99 161.308 183.962 156.28 177.76 156.28C171.558 156.28 166.53 161.308 166.53 167.51C166.53 173.712 171.558 178.74 177.76 178.74Z" fill="url(#paint6_linear_1_181)"/>
<path d="M28.58 179.67C19.97 179.67 13 186.65 13 195.25C13 203.86 19.98 210.83 28.58 210.83H160.38V179.66H28.58V179.67Z" fill="#B0BEC5"/>
<path d="M166.446 209.623C174.371 206.271 178.077 197.129 174.725 189.204C171.373 181.279 162.231 177.573 154.306 180.925C146.381 184.277 142.674 193.419 146.027 201.344C149.379 209.269 158.521 212.976 166.446 209.623Z" fill="#CFD8DC"/>
<path d="M160.38 206.48C166.582 206.48 171.61 201.452 171.61 195.25C171.61 189.048 166.582 184.02 160.38 184.02C154.178 184.02 149.15 189.048 149.15 195.25C149.15 201.452 154.178 206.48 160.38 206.48Z" fill="#B0BEC5"/>
<path d="M160.38 206.48C166.582 206.48 171.61 201.452 171.61 195.25C171.61 189.048 166.582 184.02 160.38 184.02C154.178 184.02 149.15 189.048 149.15 195.25C149.15 201.452 154.178 206.48 160.38 206.48Z" fill="url(#paint7_linear_1_181)"/>
<path d="M441.23 180.25V143.49C441.23 141.1 438.95 139.16 436.15 139.16H399.82C397.01 139.16 394.74 141.1 394.74 143.49V180.25C394.74 184.26 397.07 188.01 400.96 190.26L412.54 196.96C415.83 198.86 420.14 198.86 423.43 196.96L435.01 190.26C438.9 188.01 441.23 184.26 441.23 180.25Z" fill="#90A4AE"/>
<path d="M417.67 139.16V158.2C417.67 160.34 419.4 162.07 421.54 162.07C423.68 162.07 425.41 160.34 425.41 158.2V139.16H417.67Z" fill="url(#paint8_linear_1_181)"/>
<path d="M421.86 66.47V158.2C421.86 160.34 420.13 162.07 417.99 162.07C415.85 162.07 414.12 160.34 414.12 158.2V66.47H421.86Z" fill="#37474F"/>
<path d="M416.05 161.55C416.62 161.88 417.28 162.07 417.99 162.07C420.13 162.07 421.86 160.34 421.86 158.2V66.47H417.99V158.2C417.99 159.64 417.21 160.88 416.05 161.55Z" fill="url(#paint9_linear_1_181)"/>
<path d="M436.83 33.31V49.89C436.83 60.28 428.38 68.74 417.98 68.74C407.59 68.74 399.13 60.29 399.13 49.89V33.31C399.13 32.06 400.14 31.04 401.4 31.04H434.56C435.82 31.05 436.83 32.06 436.83 33.31ZM403.68 49.89C403.68 57.78 410.1 64.2 417.99 64.2C425.88 64.2 432.3 57.78 432.3 49.89V35.58H403.67V49.89H403.68Z" fill="#37474F"/>
<path d="M427.24 30.77V35.98C427.24 36.69 426.66 37.27 425.95 37.27H409.38C408.67 37.27 408.09 36.69 408.09 35.98V30.77C408.09 30.06 408.67 29.48 409.38 29.48H425.95C426.67 29.48 427.24 30.05 427.24 30.77Z" fill="#FFD740"/>
<path d="M396.08 185.37C397.15 187.32 398.82 189.02 400.96 190.26L412.54 196.96C415.83 198.86 420.14 198.86 423.43 196.96L435.01 190.26C437.16 189.02 438.83 187.32 439.89 185.37C436.69 177.36 428.09 171.62 417.98 171.62C407.88 171.62 399.28 177.36 396.08 185.37Z" fill="url(#paint10_linear_1_181)"/>
<path d="M272.53 205.34C266.56 205.34 263.67 197.86 268.21 193.98C268.91 193.38 269.67 192.87 270.48 192.44C273.74 190.74 277.72 190.61 281.15 191.91C283.36 192.74 285.86 192.24 287.61 190.67C290.2 188.35 293.86 187.1 297.4 186.99C300.8 186.89 304.12 187.65 307.37 188.72C310.01 189.59 312.93 188.65 314.57 186.41C321.57 176.82 333.01 170.73 344.8 168.57C351.93 167.26 359.48 167.26 366.24 169.88C371.31 171.85 375.88 175.45 378.62 180.08C380 182.42 382.76 183.63 385.43 183.1C390.56 182.09 396.32 183.97 399.91 187.78C401.97 189.96 405.21 190.61 407.82 189.14C410.15 187.83 412.66 186.93 415.32 186.84C418.36 186.73 421.55 188.05 423.52 190.26C425.11 192.04 427.56 192.73 429.91 192.37C431.72 192.1 433.61 192.39 435.2 193.29C435.23 193.31 435.26 193.33 435.29 193.34C440.96 196.65 438.47 205.39 431.9 205.39L272.53 205.34Z" fill="#CFD8DC"/>
<path d="M272.53 205.34C266.56 205.34 263.67 197.86 268.21 193.98C268.91 193.38 269.67 192.87 270.48 192.44C273.74 190.74 277.72 190.61 281.15 191.91C283.36 192.74 285.86 192.24 287.61 190.67C290.2 188.35 293.86 187.1 297.4 186.99C300.8 186.89 304.12 187.65 307.37 188.72C310.01 189.59 312.93 188.65 314.57 186.41C321.57 176.82 333.01 170.73 344.8 168.57C351.93 167.26 359.48 167.26 366.24 169.88C371.31 171.85 375.88 175.45 378.62 180.08C380 182.42 382.76 183.63 385.43 183.1C390.56 182.09 396.32 183.97 399.91 187.78C401.97 189.96 405.21 190.61 407.82 189.14C410.15 187.83 412.66 186.93 415.32 186.84C418.36 186.73 421.55 188.05 423.52 190.26C425.11 192.04 427.56 192.73 429.91 192.37C431.72 192.1 433.61 192.39 435.2 193.29C435.23 193.31 435.26 193.33 435.29 193.34C440.96 196.65 438.47 205.39 431.9 205.39L272.53 205.34Z" fill="url(#paint11_linear_1_181)"/>
<path d="M441.95 198.56H262.47C261.01 198.56 259.82 199.75 259.82 201.21V208.19C259.82 209.65 261.01 210.84 262.47 210.84H441.95C443.41 210.84 444.6 209.65 444.6 208.19V201.21C444.6 199.74 443.41 198.56 441.95 198.56Z" fill="#455A64"/>
<path d="M41.1667 142.093L33.6167 142.108L33.764 220.958L41.314 220.943L41.1667 142.093Z" fill="#37474F"/>
<path d="M28.21 217.67V218.54C28.21 219.88 29.3 220.97 30.64 220.97L44.47 220.94C45.81 220.94 46.9 219.85 46.9 218.5V217.63L28.21 217.67Z" fill="#37474F"/>
<path d="M41.32 214.02L33.78 214.03L28.21 217.67L46.9 217.63L41.32 214.02Z" fill="#455A64"/>
<path d="M41.32 214.02L41.13 142.1L38.35 142.11L38.54 214.03L41.23 217.65V218.52C41.23 219.86 40.15 220.95 38.8 220.95L44.47 220.94C45.81 220.94 46.9 219.85 46.9 218.5V217.63L41.32 214.02Z" fill="url(#paint12_linear_1_181)"/>
<path d="M46.42 133.01C46.41 128 42.34 123.94 37.33 123.95C32.32 123.96 28.26 128.03 28.27 133.04C28.28 138.05 32.35 142.11 37.36 142.1C42.37 142.09 46.43 138.02 46.42 133.01Z" fill="#E53935"/>
<path opacity="0.5" d="M35.28 128.58C35.28 129.53 34.52 130.29 33.57 130.3C32.62 130.3 31.86 129.54 31.85 128.59C31.85 127.64 32.61 126.88 33.56 126.87C34.51 126.87 35.27 127.64 35.28 128.58Z" fill="white"/>
<path d="M37.34 142.1H37.39C42.39 142.08 46.43 138.01 46.42 133.01C46.42 131.39 45.99 129.88 45.24 128.56L32.9 140.93C34.22 141.67 35.73 142.1 37.34 142.1Z" fill="url(#paint13_linear_1_181)"/>
<path d="M457.15 144.514L449.83 144.527L449.972 220.177L457.292 220.164L457.15 144.514Z" fill="#37474F"/>
<path d="M444.58 216.99V217.83C444.58 219.13 445.64 220.19 446.94 220.18L460.36 220.15C461.66 220.15 462.72 219.09 462.71 217.79V216.95L444.58 216.99Z" fill="#37474F"/>
<path d="M457.3 213.45L449.98 213.46L444.58 216.99L462.72 216.95L457.3 213.45Z" fill="#455A64"/>
<path d="M457.39 213.45L457.21 144.51L454.51 144.52L454.69 213.46L457.3 216.97V217.81C457.3 219.11 456.25 220.17 454.95 220.17L460.45 220.16C461.75 220.16 462.81 219.1 462.8 217.8V216.96L457.39 213.45Z" fill="url(#paint14_linear_1_181)"/>
<path d="M462.25 135.69C462.24 130.83 458.29 126.89 453.43 126.9C448.57 126.91 444.63 130.86 444.64 135.72C444.65 140.58 448.6 144.52 453.46 144.51C458.32 144.51 462.26 140.56 462.25 135.69Z" fill="#E53935"/>
<path d="M453.44 144.52H453.49C458.34 144.5 462.26 140.55 462.26 135.7C462.26 134.13 461.84 132.66 461.12 131.39L449.15 143.39C450.41 144.1 451.87 144.51 453.44 144.52Z" fill="url(#paint15_linear_1_181)"/>
<path opacity="0.5" d="M452.2 131.4C452.2 132.32 451.46 133.06 450.54 133.06C449.62 133.06 448.88 132.32 448.88 131.4C448.88 130.48 449.62 129.74 450.54 129.74C451.45 129.74 452.2 130.48 452.2 131.4Z" fill="white"/>
<path d="M463.865 144.513L27.0353 145.328L27.0661 161.838L463.896 161.023L463.865 144.513Z" fill="#FFD740"/>
<path d="M45.86 145.29L29.38 161.84H27.07L27.06 152.47L34.19 145.32L45.86 145.29Z" fill="#263238"/>
<path d="M67.75 145.25L51.26 161.8L39.59 161.82L56.08 145.28L67.75 145.25Z" fill="#263238"/>
<path d="M89.63 145.21L73.15 161.75L61.47 161.78L77.96 145.23L89.63 145.21Z" fill="#263238"/>
<path d="M111.52 145.17L95.03 161.71L83.36 161.74L99.84 145.19L111.52 145.17Z" fill="#263238"/>
<path d="M133.4 145.13L116.92 161.67L105.24 161.7L121.73 145.15L133.4 145.13Z" fill="#263238"/>
<path d="M155.29 145.09L138.8 161.63L127.13 161.65L143.61 145.11L155.29 145.09Z" fill="#263238"/>
<path d="M177.17 145.05L160.69 161.59L149.01 161.61L165.5 145.07L177.17 145.05Z" fill="#263238"/>
<path d="M199.06 145.01L182.57 161.55L170.9 161.57L187.38 145.03L199.06 145.01Z" fill="#263238"/>
<path d="M220.94 144.97L204.46 161.51L192.78 161.53L209.27 144.99L220.94 144.97Z" fill="#263238"/>
<path d="M242.83 144.93L226.34 161.47L214.67 161.49L231.15 144.95L242.83 144.93Z" fill="#263238"/>
<path d="M264.71 144.89L248.23 161.43L236.55 161.45L253.04 144.91L264.71 144.89Z" fill="#263238"/>
<path d="M286.6 144.85L270.11 161.39L258.44 161.41L274.92 144.87L286.6 144.85Z" fill="#263238"/>
<path d="M308.48 144.8L292 161.35L280.32 161.37L296.81 144.83L308.48 144.8Z" fill="#263238"/>
<path d="M330.37 144.76L313.88 161.31L302.21 161.33L318.7 144.79L330.37 144.76Z" fill="#263238"/>
<path d="M352.25 144.72L335.77 161.26L324.1 161.29L340.58 144.74L352.25 144.72Z" fill="#263238"/>
<path d="M374.14 144.68L357.65 161.22L345.98 161.25L362.47 144.7L374.14 144.68Z" fill="#263238"/>
<path d="M396.03 144.64L379.54 161.18L367.87 161.2L384.35 144.66L396.03 144.64Z" fill="#263238"/>
<path d="M417.91 144.6L401.43 161.14L389.75 161.16L406.24 144.62L417.91 144.6Z" fill="#263238"/>
<path d="M439.8 144.56L423.32 161.1L411.64 161.12L428.12 144.58L439.8 144.56Z" fill="#263238"/>
<path d="M461.68 144.52L445.2 161.06L433.52 161.08L450.01 144.54L461.68 144.52Z" fill="#263238"/>
<path d="M463.89 152.53L463.9 161.02L455.4 161.04L463.89 152.53Z" fill="#263238"/>
<path d="M27.07 161.84L463.9 161.02L463.89 152.65L27.06 153.47L27.07 161.84Z" fill="url(#paint16_linear_1_181)"/>
<defs>
<linearGradient id="paint0_linear_1_181" x1="260.323" y1="204.113" x2="260.323" y2="-45.3907" gradientUnits="userSpaceOnUse">
<stop offset="0.00065435" stop-color="white" stop-opacity="0"/>
<stop offset="1" stop-color="#90A4AE"/>
</linearGradient>
<linearGradient id="paint1_linear_1_181" x1="224.994" y1="187.081" x2="245.501" y2="189.934" gradientUnits="userSpaceOnUse">
<stop offset="0.00065435" stop-color="white" stop-opacity="0"/>
<stop offset="1"/>
</linearGradient>
<linearGradient id="paint2_linear_1_181" x1="241.552" y1="185.399" x2="196.794" y2="193.601" gradientUnits="userSpaceOnUse">
<stop offset="0.00065435" stop-color="white" stop-opacity="0"/>
<stop offset="1" stop-color="white"/>
</linearGradient>
<linearGradient id="paint3_linear_1_181" x1="120.861" y1="169.642" x2="120.861" y2="202.405" gradientUnits="userSpaceOnUse">
<stop offset="0.00099143" stop-color="white" stop-opacity="0"/>
<stop offset="1" stop-color="#B0BEC5"/>
</linearGradient>
<linearGradient id="paint4_linear_1_181" x1="222.586" y1="195.252" x2="182.105" y2="195.252" gradientUnits="userSpaceOnUse">
<stop offset="0.00099143" stop-color="white" stop-opacity="0"/>
<stop offset="1" stop-color="#B0BEC5"/>
</linearGradient>
<linearGradient id="paint5_linear_1_181" x1="104.067" y1="150.07" x2="104.067" y2="189.326" gradientUnits="userSpaceOnUse">
<stop offset="0.00099143" stop-color="white" stop-opacity="0"/>
<stop offset="1" stop-color="#B0BEC5"/>
</linearGradient>
<linearGradient id="paint6_linear_1_181" x1="205.792" y1="167.508" x2="165.311" y2="167.508" gradientUnits="userSpaceOnUse">
<stop offset="0.00099143" stop-color="white" stop-opacity="0"/>
<stop offset="1" stop-color="#B0BEC5"/>
</linearGradient>
<linearGradient id="paint7_linear_1_181" x1="188.416" y1="195.252" x2="147.934" y2="195.252" gradientUnits="userSpaceOnUse">
<stop offset="0.00099143" stop-color="white" stop-opacity="0"/>
<stop offset="1" stop-color="#B0BEC5"/>
</linearGradient>
<linearGradient id="paint8_linear_1_181" x1="421.544" y1="162.076" x2="421.544" y2="139.161" gradientUnits="userSpaceOnUse">
<stop offset="0.00065435" stop-color="white" stop-opacity="0"/>
<stop offset="1"/>
</linearGradient>
<linearGradient id="paint9_linear_1_181" x1="398.99" y1="111.458" x2="444.702" y2="117.643" gradientUnits="userSpaceOnUse">
<stop offset="0.00065435" stop-color="white" stop-opacity="0"/>
<stop offset="1"/>
</linearGradient>
<linearGradient id="paint10_linear_1_181" x1="418.177" y1="187.034" x2="414.166" y2="151.664" gradientUnits="userSpaceOnUse">
<stop offset="0.00065435" stop-color="white" stop-opacity="0"/>
<stop offset="1"/>
</linearGradient>
<linearGradient id="paint11_linear_1_181" x1="369.573" y1="178.465" x2="323.943" y2="232.054" gradientUnits="userSpaceOnUse">
<stop offset="0.00099143" stop-color="white" stop-opacity="0"/>
<stop offset="1" stop-color="#B0BEC5"/>
</linearGradient>
<linearGradient id="paint12_linear_1_181" x1="17.6357" y1="172.075" x2="79.5833" y2="198.264" gradientUnits="userSpaceOnUse">
<stop offset="0.00065435" stop-color="white" stop-opacity="0"/>
<stop offset="1"/>
</linearGradient>
<linearGradient id="paint13_linear_1_181" x1="39.6411" y1="125.165" x2="39.6763" y2="143.685" gradientUnits="userSpaceOnUse">
<stop offset="0.00065435" stop-color="white" stop-opacity="0"/>
<stop offset="1"/>
</linearGradient>
<linearGradient id="paint14_linear_1_181" x1="434.62" y1="173.265" x2="494.184" y2="198.446" gradientUnits="userSpaceOnUse">
<stop offset="0.00065435" stop-color="white" stop-opacity="0"/>
<stop offset="1"/>
</linearGradient>
<linearGradient id="paint15_linear_1_181" x1="455.671" y1="128.087" x2="455.705" y2="146.054" gradientUnits="userSpaceOnUse">
<stop offset="0.00065435" stop-color="white" stop-opacity="0"/>
<stop offset="1"/>
</linearGradient>
<linearGradient id="paint16_linear_1_181" x1="157.44" y1="33.8361" x2="292.06" y2="222.54" gradientUnits="userSpaceOnUse">
<stop offset="0.00065435" stop-color="white" stop-opacity="0"/>
<stop offset="1"/>
</linearGradient>
</defs>
</svg>
